PathFileType	4	(X/Y/Z)	Kaydara																																																																																																																									
DataRate	CameraRate	NumFrames	NumMarkers	Units	OrigDataRate	OrigDataStartFrame	OrigNumFrames																																																																																																																					
30	30	4	41	mm	30	122	192																																																																																																																					
Frame#	Time	PAIB_LFHD			PAIB_RFHD			PAIB_LBHD			PAIB_RBHD			PAIB_LFTShould			PAIB_RFTShould			PAIB_LRRShould			PAIB_RRRShould			PAIB_T10			PAIB_STRN			PAIB_TRUN			PAIB_LSHO			PAIB_LUPA			PAIB_LELB			PAIB_LFRM			PAIB_LWRA			PAIB_LWRB			PAIB_LFIN			PAIB_RSHO			PAIB_RUPA			PAIB_RELB			PAIB_RFRM			PAIB_RWRA			PAIB_RWRB			PAIB_RFIN			PAIB_LFWT			PAIB_RFWT			PAIB_LBWT			PAIB_RBWT			PAIB_LTHI			PAIB_LKNE			PAIB_LSHN			PAIB_LANK			PAIB_LHEE			PAIB_LTOE			PAIB_RTHI			PAIB_RKNE			PAIB_RSHN			PAIB_RANK			PAIB_RHEE			PAIB_RTOE		
		X1	Y1	Z1	X2	Y2	Z2	X3	Y3	Z3	X4	Y4	Z4	X5	Y5	Z5	X6	Y6	Z6	X7	Y7	Z7	X8	Y8	Z8	X9	Y9	Z9	X10	Y10	Z10	X11	Y11	Z11	X12	Y12	Z12	X13	Y13	Z13	X14	Y14	Z14	X15	Y15	Z15	X16	Y16	Z16	X17	Y17	Z17	X18	Y18	Z18	X19	Y19	Z19	X20	Y20	Z20	X21	Y21	Z21	X22	Y22	Z22	X23	Y23	Z23	X24	Y24	Z24	X25	Y25	Z25	X26	Y26	Z26	X27	Y27	Z27	X28	Y28	Z28	X29	Y29	Z29	X30	Y30	Z30	X31	Y31	Z31	X32	Y32	Z32	X33	Y33	Z33	X34	Y34	Z34	X35	Y35	Z35	X36	Y36	Z36	X37	Y37	Z37	X38	Y38	Z38	X39	Y39	Z39	X40	Y40	Z40	X41	Y41	Z41
																																																																																																																												
121	4.03	249.53419	1658.84003	-206.50389	64.7812	1661.68198	-212.92799	260.90948	1624.68002	-330.7185	58.00275	1640.03204	-326.54713	224.33582	1392.07779	-206.87885	102.8821	1390.13611	-197.53902	219.88976	1451.59393	-354.02733	66.95601	1455.26398	-332.16198	130.2343	1293.2341	-422.09007	173.92662	1326.82922	-163.17638	173.79129	1225.63065	-138.52114	346.2682	1396.10184	-299.44904	392.81136	1168.3651	-323.66901	401.65646	1087.60094	-371.2513	428.2576	972.11258	-343.08372	386.93203	849.24301	-255.89369	414.12762	837.83379	-331.88225	436.02169	796.35818	-275.37018	-29.05512	1394.07806	-239.99117	-103.81112	1224.21021	-267.85751	-129.99191	1106.36826	-267.05908	-139.48404	974.04327	-214.06536	-59.31271	886.3237	-112.37695	-135.13499	865.07301	-146.52023	-114.15179	839.12483	-79.38577	263.90102	947.16988	-180.0349	30.29696	924.63089	-173.81971	203.45112	980.83824	-397.42313	58.49704	975.08255	-391.59622	258.18592	695.05112	-332.52594	274.2449	497.47936	-155.89976	231.48371	292.01929	-126.59913	229.0836	101.16659	-203.11419	175.00523	91.94319	-254.2647	207.5214	54.30341	-32.63723	11.61368	673.72757	-378.19771	-14.61782	441.53961	-314.28059	40.77244	301.17712	-439.69254	4.02995	242.87514	-641.75476	64.49841	286.92837	-673.68881	38.26094	81.0187	-597.65644
122	4.063	251.64162	1664.30176	-164.36749	67.01993	1666.50269	-172.39586	264.3222	1630.45609	-288.55396	61.36735	1645.10574	-286.11856	225.5549	1397.0311	-164.73955	103.82092	1395.14297	-158.53596	225.44378	1457.21222	-311.87002	72.06852	1460.09109	-294.05731	138.3863	1298.4581	-382.3904	174.11356	1331.97098	-122.43273	173.52806	1230.70061	-97.98884	350.14336	1402.17422	-253.30759	399.9575	1174.86023	-272.35546	411.77696	1093.2402	-318.25142	437.11044	978.39539	-285.1461	391.83582	858.30811	-195.90204	422.59327	844.51271	-269.36195	442.46567	805.56267	-210.53181	-27.41815	1398.92456	-205.08278	-101.39965	1229.589	-239.02142	-127.74979	1111.77139	-241.68697	-138.14748	977.71332	-193.57332	-59.0694	886.07071	-94.25187	-135.13766	866.36292	-130.09646	-113.94827	837.79182	-63.56688	269.22678	951.2796	-141.16524	35.20004	932.1759	-134.25751	205.38492	986.96548	-357.68543	60.92212	978.31207	-352.42435	257.83381	702.90909	-305.93672	277.40776	496.18202	-143.87325	236.4872	289.8114	-121.11044	228.38676	101.67004	-202.79049	173.71441	93.51041	-253.54244	206.52338	53.41502	-31.56132	17.42464	670.33051	-317.57351	-14.27429	448.25592	-229.76055	44.90741	310.34531	-357.0866	15.42008	261.89627	-564.48391	78.93107	299.8411	-590.95306	32.34878	99.42196	-511.06297
123	4.097	253.03005	1669.35043	-122.88505	68.40457	1671.34903	-132.05423	266.52308	1636.05804	-247.06385	63.57285	1650.37613	-245.85711	226.05038	1402.82425	-123.4642	104.23072	1400.37186	-120.49749	230.25667	1462.97882	-270.33859	76.67176	1465.04303	-256.49876	145.85324	1303.67584	-342.83882	174.06389	1337.35657	-82.73726	173.63522	1236.07841	-58.49651	353.0695	1408.47305	-207.63813	406.09825	1181.72119	-220.19678	421.36532	1099.35661	-263.90291	445.55019	985.65048	-225.32553	396.79054	868.92899	-133.40807	431.05652	852.37999	-204.8822	448.09395	816.03355	-143.51533	-26.3951	1404.23172	-171.41668	-98.83734	1235.45593	-212.78233	-124.76814	1117.55409	-219.36018	-135.9914	981.76125	-175.89214	-60.51197	886.78627	-77.59607	-135.19872	868.4613	-116.18319	-115.9956	837.81883	-49.93302	275.59397	954.64973	-103.61415	41.54189	941.30684	-94.42377	206.77864	992.70615	-318.60971	62.91024	985.2504	-311.79813	258.58107	709.9781	-279.59364	279.23792	495.02388	-134.20909	236.24619	288.40202	-115.72917	228.1658	101.92978	-201.85764	173.45324	94.47699	-253.1152	206.28445	52.84154	-30.9696	16.69791	673.29773	-255.93901	-13.86618	460.73635	-149.25463	46.93777	316.2545	-267.58928	27.56619	262.34303	-471.75011	93.35721	292.23467	-499.81403	32.15938	104.04653	-404.53384
124	4.13	253.57059	1672.83844	-81.85052	69.01604	1674.05945	-91.92501	268.07293	1640.39459	-206.58852	64.8343	1653.61511	-205.77524	226.38554	1407.52716	-82.78798	104.65549	1403.98026	-82.77992	234.47819	1467.39044	-229.88621	80.76367	1468.50296	-218.77504	152.73872	1307.56439	-303.71372	174.48847	1341.4476	-43.31852	174.71901	1240.13199	-19.21809	355.49156	1414.12277	-163.17358	411.32595	1188.28224	-167.99576	430.04051	1105.06935	-209.35707	453.01105	992.70859	-165.04707	401.46832	879.73366	-70.01473	438.97133	860.45647	-139.71214	453.3057	826.93405	-75.724	-25.26432	1408.06122	-137.44632	-96.1805	1240.26756	-186.80868	-121.45796	1122.42897	-197.7878	-134.01253	985.05592	-159.08667	-62.98713	887.11075	-60.48941	-135.33345	869.61884	-103.15197	-119.58768	836.89857	-37.24251	281.44855	955.93636	-65.93919	47.28145	948.77487	-55.34368	207.71982	996.53	-279.9346	64.51183	988.92906	-271.94744	256.91875	717.54295	-253.918	279.96054	492.79526	-124.10513	237.58507	287.60366	-112.9904	227.60326	102.40717	-201.57875	172.68593	95.35469	-252.62791	206.31557	52.52392	-30.63148	11.62485	676.48911	-198.40687	-12.10252	473.09162	-72.11783	49.24989	317.26765	-174.59871	35.13582	241.85518	-373.98235	102.54075	267.69949	-403.47694	37.09192	97.91339	-281.86682
